<svg width="560" height="112" viewBox="0 0 560 112" fill="none" xmlns="http://www.w3.org/2000/svg">
<path d="M93.3099 14.304C91.8688 15.7409 89.8731 16.6309 87.6733 16.6309C89.8731 16.6309 91.8688 17.521 93.3099 18.9578C94.7477 20.3915 95.6404 22.3782 95.6436 24.5685V24.578C95.6436 26.7714 94.7509 28.7613 93.3099 30.1982C91.8688 31.635 89.8731 32.5251 87.6733 32.5251H79.703V32.5346H71.7327C69.5329 32.5346 67.5371 33.4247 66.0961 34.8615C64.6646 36.292 63.7719 38.2628 63.7624 40.4435V40.4816C63.7624 44.8716 67.3299 48.4287 71.7327 48.4287C73.9325 48.4287 75.9282 49.3188 77.3693 50.7556C78.8071 52.1924 79.6998 54.1728 79.703 56.3662V56.3758C79.703 58.5723 78.8103 60.5559 77.3693 61.9959C75.9282 63.4328 73.9325 64.3228 71.7327 64.3228H63.7624V64.2847H55.7921C53.5923 64.2847 51.5965 65.1748 50.1555 66.6116C48.7145 68.0516 47.8218 70.0352 47.8218 72.2317V72.2413C47.8282 76.6249 51.3925 80.1788 55.7921 80.1788H63.7624V80.2169H71.7327C73.9325 80.2169 75.9282 81.107 77.3693 82.5438C78.8071 83.9807 79.6998 85.9611 79.703 88.1545V88.164C79.703 90.3606 78.8103 92.3442 77.3693 93.7842C75.9282 95.221 73.9325 96.1111 71.7327 96.1111H63.7624V96.0729H47.8218V96.0825H39.8515C37.6517 96.0825 35.6559 96.9725 34.2149 98.4094C32.7739 99.8462 31.8812 101.836 31.8812 104.03V104.039C31.8812 106.236 30.9885 108.219 29.5475 109.659C28.1065 111.096 26.1107 111.986 23.9109 111.986H15.9406V111.996H7.9703C3.57069 111.996 0.00637624 108.445 0 104.058V104.049C0 101.855 0.892673 99.8653 2.3337 98.4284C3.77473 96.9916 5.77049 96.1015 7.9703 96.1015C3.57069 96.1015 0.00637624 92.5508 0 88.164V88.1545C0 85.9611 0.892673 83.9711 2.3337 82.5343C3.77473 81.0975 5.77049 80.2074 7.9703 80.2074H15.9406V80.1979H23.9109C26.1107 80.1979 28.1065 79.3078 29.5475 77.871C30.9885 76.431 31.8812 74.4474 31.8812 72.2508V72.2413C31.878 70.0479 30.9853 68.0675 29.5475 66.6307C28.1065 65.1938 26.1107 64.3038 23.9109 64.3038C19.5113 64.3038 15.947 60.753 15.9406 56.3662V56.3567C15.9406 54.1601 16.8333 52.1765 18.2743 50.7365C19.7153 49.2997 21.7111 48.4096 23.9109 48.4096H31.8812V48.4001H39.8515C42.0513 48.4001 44.047 47.51 45.4881 46.0732C46.9291 44.6332 47.8218 42.6464 47.8218 40.453V40.4435C47.8186 38.2533 46.9259 36.2665 45.4881 34.8329C44.0502 33.3992 42.0513 32.506 39.8515 32.506H31.8812V32.5155H23.9109C19.5113 32.5155 15.947 28.9648 15.9406 24.578V24.5685C15.9406 22.3719 16.8333 20.3883 18.2743 18.9483C19.7153 17.5115 21.7111 16.6214 23.9109 16.6214H31.8812V16.6119H47.8218V16.6023H55.7921C57.9919 16.6023 59.9876 15.7123 61.4287 14.2722C62.8601 12.845 63.7528 10.8709 63.7624 8.69341V8.65527C63.7719 6.47459 64.6646 4.50372 66.0961 3.07325C67.5371 1.63642 69.5329 0.746353 71.7327 0.746353H79.703V0.736816H87.6733C89.8731 0.736816 91.8688 1.62689 93.3099 3.06372C94.7477 4.49736 95.6404 6.48413 95.6436 8.67434V8.68388C95.6436 10.8773 94.7509 12.8672 93.3099 14.304Z" fill="#171D17"/>
<path d="M396.752 28.9619V81.3135C396.752 82.919 396.102 84.3732 395.051 85.4272C394.001 86.4789 392.546 87.1304 390.943 87.1304H385.134V87.1373H373.515V87.1443H361.896V87.1513H356.087C352.878 87.1513 350.277 84.5477 350.277 81.3344V28.9829H361.896V63.8769H373.515V63.87H385.134V28.9619H396.752Z" fill="#171D17"/>
<path d="M332.616 28.9551V28.9621H320.997V28.969H309.378V28.976H297.759V28.983H286.141V104.602C286.141 107.815 288.741 110.419 291.95 110.419C293.553 110.419 295.008 109.767 296.058 108.716C297.109 107.662 297.759 106.21 297.759 104.602V87.1445H309.378V87.1375H320.997V87.1305H332.616V87.1235H338.425C340.028 87.1235 341.483 86.472 342.533 85.418C343.579 84.371 344.23 82.9238 344.234 81.3276V28.9551H332.616ZM320.997 69.6869C320.997 71.2947 320.346 72.7466 319.296 73.8006C318.246 74.8523 316.791 75.5038 315.188 75.5038H309.378V75.5108H303.569C300.362 75.5108 297.764 72.9118 297.759 69.7009V46.4265C297.759 44.8211 298.41 43.3646 299.46 42.3129C300.511 41.2612 301.965 40.6097 303.569 40.6097H309.378V40.6027H315.188C316.791 40.6027 318.246 41.2542 319.296 42.3059C320.344 43.3576 320.995 44.8071 320.997 46.4126V69.6869Z" fill="#171D17"/>
<path d="M193.076 6.2895V17.9232H181.457V17.9022H169.838V17.9092H158.22V17.9162H152.41C150.807 17.9162 149.352 18.5677 148.302 19.6194C147.251 20.6734 146.601 22.1253 146.601 23.733V23.74C146.605 26.9509 149.203 29.5499 152.41 29.5499H158.22V29.5429H169.838V29.5359H181.457V41.1696H169.838V41.1766H158.22V41.1836H152.41C150.807 41.1836 149.352 41.8351 148.302 42.8868C147.251 43.9408 146.601 45.3926 146.601 47.0004V70.2748C146.605 73.4857 149.203 76.0846 152.41 76.0846H158.22V76.0777H169.838V76.0707H181.457V76.0916H193.076V87.7253H181.457V87.7044H169.838V87.7113H158.22V87.7183H146.601V87.7253H134.982V87.7323H129.173C125.964 87.7323 123.363 85.1287 123.363 81.9155V12.1133C123.363 10.5055 124.014 9.05366 125.064 7.99965C126.115 6.94796 127.569 6.29648 129.173 6.29648H134.982V6.2895H146.601V6.28251H158.22V6.27553H169.838V6.26855H181.457V6.2895H193.076Z" fill="#171D17"/>
<path d="M280.218 35.3714V81.9062C280.218 83.5116 279.567 84.9682 278.517 86.0199C277.467 87.0715 276.012 87.723 274.409 87.723H256.981V46.9842C256.981 45.3764 256.33 43.9245 255.28 42.8705C254.229 41.8188 252.775 41.1673 251.171 41.1673C249.568 41.1673 248.113 41.8188 247.063 42.8705C246.012 43.9245 245.362 45.3764 245.362 46.9842V81.8922C245.362 83.4977 244.711 84.9519 243.661 86.0059C242.61 87.0576 241.156 87.7091 239.552 87.7091C236.346 87.7091 233.748 85.1078 233.743 81.8992V46.9912C233.741 45.3857 233.09 43.9362 232.042 42.8845C230.992 41.8328 229.537 41.1813 227.934 41.1813C226.33 41.1813 224.876 41.8328 223.825 42.8845C222.775 43.9385 222.124 45.3904 222.124 46.9981V87.723H210.505V87.73H198.887V23.7447C198.887 22.1369 199.537 20.6851 200.588 19.6311C201.638 18.5794 203.093 17.9279 204.696 17.9279H210.505V17.9209H216.315C217.918 17.9209 219.373 18.5724 220.423 19.6241C221.471 20.6734 222.122 22.1276 222.124 23.7308V23.7377C222.129 26.9486 224.727 29.5476 227.934 29.5476H233.743V29.5406H245.362V29.5336H256.981V29.5546H274.409C276.012 29.5546 277.467 30.2061 278.517 31.2578C279.567 32.3094 280.218 33.766 280.218 35.3714Z" fill="#171D17"/>
<path d="M560 46.986V81.908C559.995 83.5041 559.345 84.9514 558.299 85.9984C557.249 87.0524 555.794 87.7039 554.191 87.7039H548.381V87.7109H542.572C539.365 87.7109 536.767 85.1096 536.763 81.901V41.1831H525.144V41.1901H519.334C517.731 41.1901 516.276 41.8416 515.226 42.8933C514.176 43.9449 513.525 45.4015 513.525 47.0069V81.915C513.525 83.5227 512.874 84.9746 511.824 86.0286C510.774 87.0803 509.319 87.7318 507.716 87.7318C504.507 87.7318 501.906 85.1282 501.906 81.915V17.9297H507.716C509.319 17.9297 510.774 18.5812 511.824 19.6329C512.872 20.6845 513.523 22.1341 513.525 23.7396V23.7465C513.53 26.9574 516.128 29.5564 519.334 29.5564H525.144V29.5494H536.763V29.5424H542.572C544.175 29.5424 545.63 30.1939 546.68 31.2456C547.728 32.295 548.379 33.7492 548.381 35.3523V35.3593C548.386 38.5679 550.984 41.1691 554.191 41.1691C555.794 41.1691 557.249 41.8206 558.299 42.8723C559.349 43.9263 560 45.3782 560 46.986Z" fill="#171D17"/>
<path d="M426.152 35.3535V93.5428C426.148 95.139 425.497 96.5862 424.451 97.6332C423.401 98.6873 421.946 99.3388 420.343 99.3388C418.74 99.3388 417.285 99.9902 416.235 101.042C415.184 102.096 414.534 103.548 414.534 105.156V105.163C414.534 106.768 413.883 108.222 412.833 109.276C411.782 110.328 410.328 110.979 408.724 110.979H402.915V110.986H391.296V110.993H379.677V111H368.059V99.3667H379.677V99.3597H391.296V99.3527H397.106C398.709 99.3527 400.164 98.7012 401.214 97.6495C402.264 96.5955 402.915 95.1436 402.915 93.5359V35.3604C402.915 33.755 403.566 32.2985 404.616 31.2468C405.666 30.1951 407.121 29.5436 408.724 29.5436H414.534V29.5366H420.343C421.946 29.5366 423.401 30.1881 424.451 31.2398C425.502 32.2938 426.152 33.7457 426.152 35.3535Z" fill="#171D17"/>
<path d="M481.687 5.80986V5.81684C481.687 7.42462 481.036 8.8765 479.986 9.93052C478.935 10.9822 477.481 11.6337 475.877 11.6337C474.274 11.6337 472.819 12.2852 471.769 13.3369C470.719 14.3909 470.068 15.8428 470.068 17.4505V17.4575C470.068 19.063 469.417 20.5195 468.367 21.5712C467.317 22.6229 465.862 23.2744 464.259 23.2744C461.052 23.2744 458.454 20.6754 458.449 17.4645V5.82382C458.449 4.21837 459.1 2.76184 460.15 1.71015C461.201 0.658467 462.655 0.00698021 464.259 0.00698021H470.068V0H475.877C477.481 0 478.935 0.651487 479.986 1.70317C481.034 2.75486 481.684 4.20441 481.687 5.80986Z" fill="#171D17"/>
<path d="M436.717 86.5864C437.767 87.6381 439.222 88.2896 440.825 88.2896H446.634V88.2826H458.253V88.2757H469.872V88.2687H481.491V88.2617H487.3C488.903 88.2617 490.358 87.6102 491.408 86.5585C492.459 85.5045 493.109 84.0526 493.109 82.4448V35.9101C493.109 32.6969 490.509 30.0933 487.3 30.0933H481.491V30.1002H469.872V30.1072H458.253V30.1142H446.634V30.1212H440.825C439.222 30.1212 437.767 30.7727 436.717 31.8267C435.671 32.8737 435.02 34.3209 435.016 35.9171V82.4728C435.016 84.0805 435.666 85.5324 436.717 86.5864ZM446.634 59.1984C446.634 57.593 447.285 56.1388 448.335 55.0847C449.386 54.0331 450.84 53.3816 452.444 53.3816H458.253V53.3746H464.063C467.269 53.3746 469.867 55.9736 469.872 59.1845V70.8251C469.872 72.4329 469.221 73.8848 468.171 74.9388C467.121 75.9905 465.666 76.642 464.063 76.642H458.253V76.6489H452.444C450.84 76.6489 449.386 75.9975 448.335 74.9458C447.287 73.8964 446.637 72.4422 446.634 70.8391V59.1984Z" fill="#171D17"/>
</svg>
