<?xml version="1.0" encoding="UTF-8"?>
<svg id="Capa_1" xmlns="http://www.w3.org/2000/svg" version="1.1" viewBox="0 0 629.26 166.75">
  <!-- Generator: Adobe Illustrator 30.1.0, SVG Export Plug-In . SVG Version: 2.1.1 Build 136)  -->
  <defs>
    <style>
      .st0 {
        fill: #eff5f0;
      }

      .st1 {
        fill: #6be386;
      }
    </style>
  </defs>
  <g>
    <path class="st0" d="M109.14,46.88c0,7.3-1.88,13.61-5.64,18.94-3.76,5.33-9.06,9.46-15.91,12.38-6.85,2.92-14.9,4.38-24.16,4.38-6.17,0-11.83-.64-16.96-1.94-5.14-1.29-9.61-3.11-13.43-5.47l1.18-7.66c2.08,1.4,4.29,2.57,6.65,3.49,2.36.93,4.86,1.63,7.49,2.1,2.64.48,5.39.72,8.25.72,5.16,0,9.77-1.07,13.81-3.2,4.04-2.13,7.23-5.25,9.56-9.35,2.33-4.1,3.49-9.09,3.49-14.99,0-6.85-1.38-12.8-4.13-17.85-2.75-5.05-6.59-8.95-11.53-11.7-4.94-2.75-10.75-4.13-17.43-4.13h-6.65v94.97c0,1.29.34,2.37,1.01,3.24.67.87,1.74,1.42,3.2,1.64l7.41,1.01c1.46.28,2.5.77,3.11,1.47.62.7.93,1.7.93,2.99,0,1.18-.42,2.13-1.26,2.86-.84.73-2.16,1.09-3.96,1.09H10.22c-1.8,0-3.12-.36-3.96-1.09-.84-.73-1.26-1.68-1.26-2.86,0-2.19,1.21-3.65,3.62-4.38l4.8-1.09c1.35-.39,2.39-.98,3.12-1.77.73-.79,1.09-1.82,1.09-3.12V18.34c0-1.29-.37-2.33-1.09-3.12-.73-.78-1.77-1.37-3.12-1.77l-4.8-1.09c-2.41-.73-3.62-2.19-3.62-4.38,0-1.23.42-2.2,1.26-2.9.84-.7,2.16-1.05,3.96-1.05h40.83c12.29,0,22.76,1.84,31.4,5.51,8.64,3.68,15.25,8.76,19.83,15.24,4.57,6.48,6.86,13.85,6.86,22.1Z"/>
    <path class="st0" d="M107.29,104.22c0-7.02,3.14-12.68,9.43-17.01,6.29-4.32,15.07-6.48,26.35-6.48,3.65,0,6.95.31,9.89.93,2.95.62,5.49,1.43,7.62,2.44l-1.85,5.56c-1.91-.9-3.86-1.6-5.85-2.1-1.99-.51-4.14-.76-6.44-.76-4.66,0-8.31,1.19-10.95,3.58-2.64,2.39-3.96,5.68-3.96,9.89s1.12,7.35,3.37,9.6c2.24,2.24,5.14,3.37,8.67,3.37,3.03,0,5.95-.7,8.76-2.1,2.81-1.4,5.16-3.34,7.07-5.81l1.85,4.97c-3.14,4.38-7.32,7.76-12.54,10.15-5.22,2.39-10.75,3.58-16.59,3.58-7.35,0-13.33-1.82-17.93-5.47s-6.9-8.42-6.9-14.31ZM157.97,111.12v-1.77l-1.6-.42v-50.09c0-3.98-1.01-7.06-3.03-9.22-2.02-2.16-4.86-3.24-8.5-3.24-3.31,0-5.87.72-7.66,2.15-1.8,1.43-2.69,3.16-2.69,5.18v7.41c0,3.42-1.14,6.05-3.41,7.87-2.27,1.82-5.46,2.74-9.56,2.74-3.54,0-6.2-.83-8-2.48-1.8-1.66-2.69-3.94-2.69-6.86,0-3.54,1.46-7.02,4.38-10.44,2.92-3.42,7.23-6.24,12.92-8.46,5.7-2.22,12.73-3.33,21.09-3.33,10.33,0,18.02,2.09,23.07,6.27,5.05,4.18,7.58,9.84,7.58,16.97v43.78c0,1.57.32,2.75.97,3.54.64.79,1.56,1.18,2.74,1.18s2.16-.29,2.78-.88c.62-.59,1.15-1.16,1.6-1.73.34-.39.67-.73,1.01-1.01.34-.28.76-.42,1.26-.42.67,0,1.18.27,1.52.8.34.53.5,1.22.5,2.06,0,1.91-.66,3.89-1.98,5.94-1.32,2.05-3.3,3.79-5.94,5.22-2.64,1.43-5.9,2.15-9.77,2.15-5.05,0-9.08-1.15-12.08-3.45-3-2.3-4.51-5.44-4.51-9.43Z"/>
    <path class="st0" d="M238.4,109.77l-12.63,22.65-34.6-76.53c-.95-2.19-1.94-3.69-2.95-4.5-1.01-.81-2.61-1.53-4.8-2.15-1.07-.34-1.82-.8-2.27-1.39-.45-.59-.67-1.33-.67-2.23,0-1.12.41-2.01,1.22-2.65.81-.64,1.92-.97,3.33-.97h37.72c1.4,0,2.51.32,3.32.97.81.65,1.22,1.53,1.22,2.65,0,.9-.27,1.64-.8,2.23s-1.45,1.03-2.74,1.31l-3.03.59c-2.58.56-4.1,1.52-4.55,2.86-.45,1.35.03,3.73,1.43,7.16l20.79,50.01ZM222.48,135.2l5.22-12.97,3.11-5.89,22.14-55.57c1.4-3.37,1.88-5.84,1.43-7.41-.45-1.57-1.99-2.64-4.63-3.2l-3.37-.76c-1.24-.34-2.15-.83-2.74-1.47-.59-.64-.88-1.42-.88-2.31,0-1.12.41-2.01,1.22-2.65.81-.64,1.92-.97,3.32-.97h24c1.46,0,2.6.32,3.41.97.81.65,1.22,1.53,1.22,2.65,0,.79-.25,1.47-.76,2.06-.5.59-1.38,1.14-2.61,1.64-2.47.79-4.38,1.84-5.72,3.16-1.35,1.32-2.64,3.55-3.87,6.69l-30.06,74c-3.14,7.63-6.07,13.54-8.8,17.72-2.72,4.18-5.64,7.07-8.76,8.67-3.11,1.6-6.89,2.4-11.32,2.4-6.57,0-11.76-1.75-15.57-5.26-3.82-3.51-5.72-7.79-5.72-12.84,0-3.65.88-6.5,2.65-8.55,1.77-2.05,4.14-3.07,7.11-3.07s5.06.87,6.61,2.61c1.54,1.74,2.79,4.07,3.75,6.99l1.09,3.2c.45,2.02,1.19,3.52,2.23,4.5s2.2,1.47,3.49,1.47,2.62-.38,3.83-1.14c1.21-.76,2.53-2.29,3.96-4.59,1.43-2.3,3.1-5.67,5.01-10.1Z"/>
    <path class="st0" d="M266.3,84.18c0-8.98,1.8-16.78,5.39-23.41,3.59-6.62,8.46-11.73,14.61-15.32,6.15-3.59,13.01-5.39,20.59-5.39,6.74,0,12.7,1.57,17.89,4.71,5.19,3.14,9.5,7.75,12.92,13.81l-5.9,4.88c-2.81-4.6-5.95-8.04-9.43-10.31-3.48-2.27-7.21-3.41-11.2-3.41s-7.24,1.14-10.27,3.41-5.42,5.75-7.16,10.44c-1.74,4.69-2.61,10.68-2.61,17.97,0,6.85.84,12.5,2.53,16.96,1.68,4.46,4.01,7.8,6.99,10.02,2.97,2.22,6.34,3.33,10.1,3.33,4.1,0,7.93-1.25,11.49-3.75,3.56-2.5,6.83-6.27,9.81-11.32l3.87,4.88c-4.43,6.96-9.58,12.42-15.45,16.38-5.87,3.96-12.34,5.94-19.41,5.94-6.68,0-12.63-1.7-17.85-5.09-5.22-3.39-9.35-8.1-12.38-14.1-3.03-6.01-4.55-12.88-4.55-20.63ZM327.93,107.67l-.76-.42V26.38c0-1.46-.23-2.5-.67-3.11-.45-.62-1.15-1.01-2.1-1.18l-4.38-.34c-1.07-.28-1.82-.67-2.27-1.18-.45-.51-.67-1.15-.67-1.94,0-.95.28-1.73.84-2.32.56-.59,1.6-1.16,3.12-1.73l15.49-5.72c2.13-.78,3.87-1.36,5.22-1.73,1.35-.36,2.58-.55,3.7-.55,1.85,0,3.24.51,4.17,1.52.93,1.01,1.39,2.33,1.39,3.96v96.1c0,1.74.24,3.03.72,3.87s1.22,1.43,2.23,1.77l3.2.84c1.06.34,1.87.81,2.4,1.43s.8,1.38.8,2.27c0,1.07-.38,1.92-1.14,2.57-.76.65-1.98.97-3.66.97h-17.17c-2.97,0-5.46-.95-7.45-2.86-1.99-1.91-2.99-4.41-2.99-7.49v-3.87Z"/>
    <path class="st0" d="M510.94,63.38c0,3.14-1.12,5.81-3.37,8-2.25,2.19-5.25,3.28-9.01,3.28s-6.34-1-8.25-2.99c-1.91-1.99-2.86-4.59-2.86-7.79v-2.61c0-3.82-1.18-6.89-3.54-9.22-2.36-2.33-5.56-3.49-9.6-3.49-3.54,0-6.71,1.05-9.52,3.16-2.81,2.1-5.02,5.14-6.65,9.09-1.63,3.96-2.44,8.71-2.44,14.27,0,7.07,1.19,13.02,3.58,17.85,2.39,4.83,5.68,8.49,9.89,10.99,4.21,2.5,9.01,3.75,14.4,3.75,4.77,0,8.95-.97,12.55-2.9,3.59-1.94,6.42-4.67,8.5-8.21,1.01-1.12,1.81-1.88,2.4-2.27.59-.39,1.22-.59,1.9-.59.9,0,1.56.39,1.98,1.18.42.79.6,1.77.55,2.95-.22,4.71-1.88,9.06-4.97,13.05-3.09,3.99-7.24,7.17-12.46,9.56-5.22,2.39-11.23,3.58-18.02,3.58-8.14,0-15.35-1.67-21.64-5.01-6.29-3.34-11.23-8.03-14.82-14.06-3.59-6.03-5.39-13.09-5.39-21.17s1.78-15.76,5.35-22.35c3.56-6.59,8.59-11.8,15.07-15.62,6.48-3.82,14.13-5.72,22.94-5.72,6.85,0,12.77,1.05,17.76,3.16,4.99,2.1,8.85,4.92,11.58,8.46,2.72,3.54,4.08,7.44,4.08,11.7Z"/>
    <path class="st0" d="M588.84,62.65c.75,2.94.48,5.42-.8,7.46-1.28,2.03-3.52,3.46-6.73,4.27l-51,12.94-1.62-6.36,33.46-8.49c2.83-.72,3.92-2.36,3.27-4.91-1.81-7.13-4.48-12.19-8.03-15.2-3.54-3.01-7.52-3.95-11.93-2.84-3.43.87-6.19,2.66-8.28,5.36-2.09,2.7-3.39,6.16-3.88,10.37-.5,4.21-.06,9,1.31,14.39,2.67,10.5,7.14,17.76,13.43,21.78,6.29,4.02,13.52,5,21.68,2.92,4.79-1.21,8.75-3.23,11.88-6.06,3.13-2.82,5.29-6.24,6.48-10.24.7-1.34,1.3-2.27,1.81-2.8.5-.53,1.05-.88,1.65-1.03.87-.22,1.61.01,2.22.7.61.69,1.03,1.61,1.27,2.76.94,4.63.4,9.27-1.63,13.92-2.03,4.66-5.35,8.8-9.96,12.43-4.61,3.63-10.29,6.3-17.03,8.01-7.89,2-15.3,2.16-22.25.48s-12.9-5.01-17.86-9.97c-4.97-4.96-8.44-11.36-10.43-19.2-2.11-8.32-2.32-16.07-.6-23.26,1.71-7.18,5.19-13.36,10.45-18.55,5.26-5.18,12.16-8.86,20.7-11.03,7.29-1.85,13.85-2.11,19.69-.79,5.84,1.33,10.71,3.97,14.61,7.93,3.9,3.96,6.62,8.96,8.15,15Z"/>
    <path class="st0" d="M433.72,62.65c.75,2.94.48,5.42-.8,7.46-1.28,2.03-3.52,3.46-6.73,4.27l-51,12.94-1.62-6.36,33.46-8.49c2.83-.72,3.92-2.36,3.27-4.91-1.81-7.13-4.48-12.19-8.03-15.2-3.54-3.01-7.52-3.95-11.93-2.84-3.43.87-6.19,2.66-8.28,5.36-2.09,2.7-3.39,6.16-3.88,10.37-.5,4.21-.06,9,1.31,14.39,2.67,10.5,7.14,17.76,13.43,21.78,6.29,4.02,13.52,5,21.68,2.92,4.79-1.21,8.75-3.23,11.88-6.06,3.13-2.82,5.29-6.24,6.48-10.24.7-1.34,1.3-2.27,1.81-2.8.5-.53,1.05-.88,1.65-1.03.87-.22,1.61.01,2.22.7s1.03,1.61,1.27,2.76c.94,4.63.4,9.27-1.63,13.92-2.03,4.66-5.35,8.8-9.96,12.43-4.61,3.63-10.29,6.3-17.03,8.01-7.89,2-15.3,2.16-22.25.48-6.94-1.68-12.9-5.01-17.86-9.97-4.97-4.96-8.44-11.36-10.43-19.2-2.11-8.32-2.32-16.07-.6-23.26,1.71-7.18,5.19-13.36,10.45-18.55,5.26-5.18,12.16-8.86,20.7-11.03,7.29-1.85,13.85-2.11,19.69-.79,5.84,1.33,10.71,3.97,14.61,7.93,3.9,3.96,6.62,8.96,8.15,15Z"/>
  </g>
  <circle class="st1" cx="603.97" cy="27.63" r="21.03"/>
</svg>