<?xml version="1.0" standalone="no"?>
<!DOCTYPE svg PUBLIC "-//W3C//DTD SVG 20010904//EN"
 "http://www.w3.org/TR/2001/REC-SVG-20010904/DTD/svg10.dtd">
<svg version="1.0" xmlns="http://www.w3.org/2000/svg"
 width="648.000000pt" height="252.000000pt" viewBox="0 0 648.000000 252.000000"
 preserveAspectRatio="xMidYMid meet">

<g transform="translate(0.000000,252.000000) scale(0.100000,-0.100000)"
fill="#2F3FAA" stroke="none">
<path d="M2455 2051 c-74 -19 -152 -87 -182 -160 -21 -49 -20 -146 1 -196 57
-134 216 -193 344 -129 229 114 166 458 -90 488 -24 2 -56 1 -73 -3z"/>
<path d="M2745 2010 c-3 -5 2 -20 11 -32 16 -21 26 -23 113 -24 74 -1 110 -6
156 -24 148 -56 265 -182 304 -328 10 -34 16 -42 35 -42 33 0 38 22 20 78 -56
168 -185 299 -350 357 -56 20 -89 25 -176 25 -60 0 -110 -4 -113 -10z"/>
<path d="M337 1763 c-4 -3 -7 -208 -7 -455 l0 -448 80 0 80 0 2 168 3 167 135
6 c150 7 186 18 250 75 50 46 80 123 80 207 -2 156 -88 254 -246 277 -77 11
-367 14 -377 3z m380 -152 c57 -26 76 -66 71 -143 -4 -50 -9 -64 -36 -91 -32
-32 -33 -32 -147 -35 l-115 -4 0 139 c0 77 3 143 7 146 3 4 45 7 92 7 63 0 97
-6 128 -19z"/>
<path d="M3773 1549 c-24 -6 -60 -26 -86 -49 -25 -22 -48 -40 -51 -40 -3 0 -6
18 -6 40 l0 40 -79 0 -79 0 -7 -112 c-3 -62 -4 -239 -1 -393 3 -154 5 -319 6
-367 l0 -88 43 0 c23 0 59 3 80 6 l37 7 0 173 c0 96 4 174 8 174 5 0 19 -12
33 -26 42 -45 78 -58 159 -58 88 0 137 21 192 82 57 63 81 138 82 262 1 124
-18 197 -67 261 -56 75 -166 111 -264 88z m97 -161 c94 -64 92 -303 -3 -372
-21 -16 -44 -21 -87 -21 -51 0 -63 4 -89 29 -40 38 -61 104 -60 185 1 133 53
201 154 201 37 0 61 -6 85 -22z"/>
<path d="M1385 1536 c-31 -13 -85 -69 -85 -87 0 -5 -4 -9 -10 -9 -5 0 -10 23
-10 50 l0 50 -80 0 -80 0 0 -340 0 -340 79 0 80 0 3 213 c3 237 9 258 79 305
29 21 42 23 91 18 l56 -6 11 51 c17 76 14 96 -11 103 -37 10 -91 6 -123 -8z"/>
<path d="M1809 1531 c-102 -40 -158 -109 -185 -228 -33 -151 1 -289 93 -373
64 -58 125 -80 224 -80 132 0 226 56 281 167 28 57 33 79 36 158 8 181 -56
302 -190 356 -59 24 -197 24 -259 0z m216 -141 c50 -31 70 -88 69 -196 0 -100
-15 -139 -66 -177 -38 -29 -123 -34 -168 -10 -52 27 -73 72 -78 167 -6 120 24
203 82 226 40 17 127 11 161 -10z"/>
<path d="M4460 1541 c-87 -27 -155 -87 -193 -170 -32 -72 -36 -229 -8 -314 42
-126 138 -196 282 -205 130 -8 239 42 285 129 14 28 14 28 -41 64 l-56 35 -30
-34 c-92 -105 -289 -51 -293 81 l-1 38 224 3 224 2 -5 93 c-8 139 -55 220
-158 266 -47 21 -177 28 -230 12z m173 -133 c27 -14 57 -69 57 -105 l0 -33
-139 0 c-77 0 -142 3 -144 8 -8 12 20 83 44 108 37 39 128 50 182 22z"/>
<path d="M5260 1532 c-19 -9 -45 -33 -58 -52 -33 -50 -42 -48 -42 9 l0 51 -80
0 -80 0 0 -340 0 -340 80 0 80 0 0 178 c0 189 13 277 46 313 35 39 73 52 131
45 49 -6 53 -5 58 16 24 110 25 113 8 126 -24 18 -102 15 -143 -6z"/>
<path d="M5643 1531 c-56 -20 -96 -46 -126 -79 -17 -19 -17 -21 14 -71 18 -28
34 -51 35 -51 2 0 24 16 49 35 115 88 273 69 253 -31 -5 -28 -49 -53 -112 -65
-107 -19 -184 -48 -220 -82 -83 -78 -68 -242 27 -305 32 -21 55 -28 112 -30
86 -5 132 13 172 64 14 19 29 34 34 34 5 0 15 -13 24 -30 20 -38 63 -60 117
-60 82 0 88 5 88 71 l0 58 -37 3 -38 3 -5 205 c-6 236 -13 262 -91 315 -41 28
-51 30 -144 33 -79 2 -111 -2 -152 -17z m235 -406 c-7 -75 -30 -119 -76 -141
-41 -19 -104 -14 -132 11 -23 20 -32 68 -20 100 13 33 62 62 119 70 25 3 57
12 71 20 14 7 29 11 34 8 5 -3 6 -34 4 -68z"/>
<path d="M2320 1462 c0 -176 81 -338 221 -444 64 -48 120 -74 210 -95 75 -18
119 -12 119 17 0 26 -14 33 -90 46 -96 17 -175 59 -251 134 -97 95 -149 213
-149 337 0 48 -2 54 -30 68 l-30 16 0 -79z"/>
<path d="M2760 1425 c-24 -29 0 -49 68 -58 221 -27 412 -240 412 -457 0 -53 3
-61 29 -79 15 -11 31 -18 35 -14 13 13 5 122 -13 195 -11 42 -33 102 -49 135
-77 152 -244 270 -409 288 -48 6 -61 4 -73 -10z"/>
<path d="M3015 792 c-114 -54 -176 -186 -141 -303 35 -121 124 -189 245 -189
254 1 344 340 127 475 -63 39 -168 46 -231 17z"/>
<path d="M2240 785 c-31 -37 39 -191 130 -289 50 -53 82 -76 156 -113 92 -45
94 -46 211 -50 135 -5 154 1 127 41 -16 25 -21 27 -63 21 -25 -3 -77 -1 -116
5 -173 28 -322 151 -379 314 -32 91 -41 101 -66 71z"/>
</g>
</svg>
